<svg viewBox="4.723 8.719 16.933 17.533" width="16.933" height="17.533" focusable="false" xmlns="http://www.w3.org/2000/svg">
  <circle style="fill: rgb(255, 255, 255);" cx="13.197" cy="17.254" r="7.702"/>
  <g id="g9081" transform="matrix(1, 0, 0, 1, -20.232063, 64.923912)" style="">
    <path d="m 38.543173,-42.624783 -3.618442,-1.496483 -1.503538,3.624439 -1.500364,-3.624439 -3.620911,1.496483 1.503186,-3.619147 -3.626203,-1.502481 3.626203,-1.501422 -1.503186,-3.6195 3.620911,1.496131 1.500364,-3.619147 1.503538,3.619147 -0.01834,0.0095 3.636786,-1.505656 -1.497542,3.6195 3.623734,1.501422 -3.624792,1.502481 z m -5.12198,-13.579827 c -4.674659,0 -8.466314,3.790597 -8.466314,8.466313 0,4.677128 3.791655,8.467372 8.466314,8.467372 4.675716,0 8.466313,-3.790244 8.466313,-8.467372 0,-4.675716 -3.790597,-8.466313 -8.466313,-8.466313" style="fill:#0b3865;fill-opacity:1;fill-rule:nonzero;stroke:none;stroke-width:0.35277778" id="path5014"/>
    <path d="m 37.777928,-52.101604 -7.436203,3.080103 3.07975,1.275291 1.275292,3.076928 z" style="fill:#0b3865;fill-opacity:1;fill-rule:nonzero;stroke:none;stroke-width:0.35277778" id="path5018"/>
    <path d="m 40.619694,-39.675667 c 0.147814,0 0.350661,0.02575 0.350661,-0.158044 0,-0.132998 -0.116417,-0.150284 -0.249414,-0.150284 h -0.272344 v 0.308328 z m 0.493183,0.599722 h -0.178858 l -0.301625,-0.472369 h -0.183797 v 0.472369 h -0.155928 v -1.025172 h 0.459317 c 0.08819,0 0.176741,0.0049 0.257175,0.04904 0.07796,0.04375 0.116416,0.134761 0.116416,0.220486 0,0.202495 -0.144991,0.277989 -0.332316,0.283281 z m -1.23578,-0.516819 c 0,0.417689 0.34043,0.742244 0.766233,0.742244 0.420158,0 0.760236,-0.324555 0.760236,-0.742244 0,-0.404636 -0.340078,-0.731309 -0.760236,-0.731309 -0.425803,0 -0.766233,0.326673 -0.766233,0.731309 m -0.178859,0 c 0,-0.500945 0.422628,-0.91052 0.945092,-0.91052 0.518936,0 0.939447,0.409575 0.939447,0.91052 0,0.511528 -0.420511,0.921455 -0.939447,0.921455 -0.522464,0 -0.945092,-0.409927 -0.945092,-0.921455" style="fill:#0b3865;fill-opacity:1;fill-rule:nonzero;stroke:none;stroke-width:0.35277778" id="path5030"/>
  </g>
</svg>